<?xml version="1.0" encoding="UTF-8" standalone="no"?>
<!DOCTYPE svg PUBLIC "-//W3C//DTD SVG 1.1//EN" "http://www.w3.org/Graphics/SVG/1.1/DTD/svg11.dtd">
<svg width="100%" height="100%" viewBox="0 0 1000 1000" version="1.1" xmlns="http://www.w3.org/2000/svg" xmlns:xlink="http://www.w3.org/1999/xlink" xml:space="preserve" xmlns:serif="http://www.serif.com/" style="fill-rule:evenodd;clip-rule:evenodd;stroke-linejoin:round;stroke-miterlimit:2;">
    <path d="M500,0C775.958,0 1000,224.042 1000,500C1000,775.958 775.958,1000 500,1000C224.042,1000 0,775.958 0,500C0,224.042 224.042,0 500,0ZM500,33.333C242.44,33.333 33.333,242.44 33.333,500C33.333,757.56 242.44,966.667 500,966.667C757.56,966.667 966.667,757.56 966.667,500C966.667,242.44 757.56,33.333 500,33.333Z" style="fill:rgb(237,232,221);"/>
    <g transform="matrix(6.60823,0,0,6.60823,-545.268,-1929.37)">
        <path d="M174.255,410L142.099,410L142.099,406.42L150.122,406.42C150.657,406.42 151.161,406.256 151.634,405.926C152.108,405.597 152.344,405.021 152.344,404.198L152.344,358.957C152.344,358.01 152.108,357.187 151.634,356.488C151.161,355.788 150.513,355.377 149.69,355.254L142.469,354.081L142.469,350.871L164.133,350.254L164.133,404.198C164.133,405.021 164.369,405.597 164.843,405.926C165.316,406.256 165.82,406.42 166.355,406.42L174.255,406.42L174.255,410ZM158.146,338.404C155.883,338.404 154.103,337.786 152.807,336.552C151.511,335.318 150.863,333.754 150.863,331.861C150.863,329.927 151.511,328.343 152.807,327.109C154.103,325.874 155.883,325.257 158.146,325.257C160.409,325.257 162.189,325.874 163.485,327.109C164.781,328.343 165.429,329.927 165.429,331.861C165.429,333.754 164.781,335.318 163.485,336.552C162.189,337.786 160.409,338.404 158.146,338.404Z" style="fill:rgb(237,232,221);"/>
    </g>
</svg>
